<svg xmlns="http://www.w3.org/2000/svg" viewBox="0 0 1254 1254" width="1254" height="1254"><title>UWR Konstanz – sauberer Vektor-Neuaufbau</title><desc>Manuell konstruierte Bézierkonturen. Runder Ball, Hai mit Wasserballkappe, Schrift vollständig in Pfaden. Transparenter Hintergrund.</desc><path d="M 394,698 C 313,735 270,823 202,866 C 209,738 128,659 48,613 C 155,553 261,552 341,587 C 381,605 407,648 394,698 Z" fill="#12b4ef" stroke="#001d34" stroke-width="16" stroke-linejoin="round" stroke-linecap="round"/><path d="M 300,614 C 319,649 341,675 371,686 C 296,720 270,803 216,844 C 237,737 258,677 300,614 Z" fill="#008dcc" stroke="none" stroke-width="0" stroke-linejoin="round" stroke-linecap="round"/><path d="M 190,591 C 229,590 269,600 294,619 C 270,621 267,626 257,622 C 235,607 212,599 190,591 Z" fill="#ffffff" stroke="none" stroke-width="0" stroke-linejoin="round" stroke-linecap="round"/><path d="M 197,694 C 224,720 239,758 233,802 C 227,760 214,727 197,694 Z" fill="#ffffff" stroke="none" stroke-width="0" stroke-linejoin="round" stroke-linecap="round"/><path d="M 785,192 C 932,136 1085,172 1180,260 C 1093,280 1038,313 992,373 L 860,369 L 771,290 Z" fill="#12b4ef" stroke="#001d34" stroke-width="16" stroke-linejoin="round" stroke-linecap="round"/><path d="M 827,235 C 906,250 952,292 981,344 C 1040,294 1102,273 1178,260 C 1090,285 1040,321 992,373 L 838,317 Z" fill="#008dcc" stroke="none" stroke-width="0" stroke-linejoin="round" stroke-linecap="round"/><path d="M 863,190 C 963,190 1058,214 1101,241 C 1120,258 1076,247 1065,242 C 1007,214 936,199 863,190 Z" fill="#ffffff" stroke="none" stroke-width="0" stroke-linejoin="round" stroke-linecap="round"/><path d="M 728,294 C 856,262 939,302 1013,405 C 1090,512 1095,610 1016,674 C 970,710 910,729 870,722 C 841,716 857,682 867,647 C 909,543 859,446 770,405 L 686,389 Z" fill="#12b4ef" stroke="#001d34" stroke-width="16" stroke-linejoin="round" stroke-linecap="round"/><path d="M 781,330 C 882,370 949,458 965,538 C 979,613 943,673 867,702 C 888,638 899,582 875,516 C 853,457 811,424 749,397 Z" fill="#008dcc" stroke="none" stroke-width="0" stroke-linejoin="round" stroke-linecap="round"/><path d="M 917,358 C 990,410 1030,481 1024,547 C 1017,603 979,641 934,668 C 996,595 1011,493 917,358 Z" fill="#ffffff" stroke="none" stroke-width="0" stroke-linejoin="round" stroke-linecap="round"/><path d="M 457,309 C 374,329 302,389 266,454 C 218,544 259,610 341,642 C 365,650 372,637 368,610 C 357,541 392,489 452,457 L 523,414 Z" fill="#12b4ef" stroke="#001d34" stroke-width="16" stroke-linejoin="round" stroke-linecap="round"/><path d="M 453,432 C 384,464 352,506 352,565 C 350,591 362,617 356,633 C 342,638 313,618 300,606 C 294,535 342,479 402,450 Z" fill="#008dcc" stroke="none" stroke-width="0" stroke-linejoin="round" stroke-linecap="round"/><path d="M 346,391 C 286,447 268,514 328,591 C 244,538 265,444 346,391 Z" fill="#ffffff" stroke="none" stroke-width="0" stroke-linejoin="round" stroke-linecap="round"/><ellipse cx="627" cy="593" rx="251" ry="251" fill="#ffffff" stroke="#001d34" stroke-width="17"/><path d="M 392,596 C 402,718 521,803 657,800 C 763,797 843,724 870,620 C 859,765 756,844 627,844 C 483,844 388,747 392,596 Z" fill="#d9e0e7" stroke="none" stroke-width="0" stroke-linejoin="round" stroke-linecap="round"/><path d="M 486,506 L 533,553 L 499,643 L 417,632 C 405,577 433,541 486,506 Z" fill="#001d34" stroke="none" stroke-width="0" stroke-linejoin="round" stroke-linecap="round"/><path d="M 694,453 L 777,469 L 800,553 L 735,593 L 664,526 Z" fill="#001d34" stroke="none" stroke-width="0" stroke-linejoin="round" stroke-linecap="round"/><path d="M 558,702 L 651,667 L 715,728 L 687,777 L 558,790 Z" fill="#001d34" stroke="none" stroke-width="0" stroke-linejoin="round" stroke-linecap="round"/><path d="M 450,214 C 513,183 611,207 653,248 C 674,270 665,321 694,350 C 718,375 744,378 773,391 C 674,378 606,407 524,426 C 485,435 431,443 410,426 C 382,408 405,367 431,326 L 418,304 C 413,279 432,246 450,214 Z" fill="#12b4ef" stroke="#001d34" stroke-width="16" stroke-linejoin="round" stroke-linecap="round"/><path d="M 526,316 C 543,290 599,270 638,268 C 636,320 632,352 592,362 C 559,367 534,348 526,316 Z" fill="#ffffff" stroke="#001d34" stroke-width="10" stroke-linejoin="round" stroke-linecap="round"/><ellipse cx="578" cy="322" rx="27" ry="32" fill="#e8232b" stroke="#001d34" stroke-width="5"/><ellipse cx="571" cy="321" rx="13" ry="17" fill="#001d34" stroke="none" stroke-width="0"/><path d="M 590,297 L 603,310 L 591,318 L 579,306 Z" fill="#ffffff" stroke="none" stroke-width="0" stroke-linejoin="round" stroke-linecap="round"/><path d="M 540,356 C 568,380 612,366 645,358 C 614,386 565,385 540,356 Z" fill="#008dcc" stroke="none" stroke-width="0" stroke-linejoin="round" stroke-linecap="round"/><path d="M 538,364 C 568,393 618,383 651,357" fill="none" stroke="#001d34" stroke-width="5" stroke-linejoin="round" stroke-linecap="round"/><path d="M 579,217 C 617,224 644,238 654,255 C 616,274 584,305 534,335 C 515,347 499,334 492,314 C 479,290 521,250 579,217 Z" fill="#12b4ef" stroke="#001d34" stroke-width="12" stroke-linejoin="round" stroke-linecap="round"/><path d="M 513,429 L 564,415 L 568,465 C 540,460 523,450 513,429 Z" fill="#fff1cf" stroke="#001d34" stroke-width="11" stroke-linejoin="round" stroke-linecap="round"/><path d="M 560,416 L 605,404 L 609,453 C 585,449 566,435 560,416 Z" fill="#fff1cf" stroke="#001d34" stroke-width="10" stroke-linejoin="round" stroke-linecap="round"/><path d="M 603,405 L 642,395 L 646,440 C 625,436 608,421 603,405 Z" fill="#fff1cf" stroke="#001d34" stroke-width="10" stroke-linejoin="round" stroke-linecap="round"/><path d="M 642,395 L 675,387 L 680,421 C 660,417 646,408 642,395 Z" fill="#fff1cf" stroke="#001d34" stroke-width="10" stroke-linejoin="round" stroke-linecap="round"/><path d="M 441,237 C 424,195 452,143 500,107 C 581,47 674,71 714,80 C 785,99 823,170 820,258 C 814,311 789,355 752,367 C 709,371 685,346 673,313 C 657,278 670,246 640,231 C 586,205 493,210 441,237 Z" fill="#ffffff" stroke="#001d34" stroke-width="17" stroke-linejoin="round" stroke-linecap="round"/><path d="M 454,167 C 569,149 709,180 817,255" fill="none" stroke="#001d34" stroke-width="11" stroke-linejoin="round" stroke-linecap="round"/><ellipse cx="743" cy="287" rx="43" ry="51" fill="#ffffff" stroke="#001d34" stroke-width="8"/><ellipse cx="729" cy="267" rx="6.5" ry="7.5" fill="#001d34" stroke="none" stroke-width="0"/><ellipse cx="752" cy="261" rx="6.5" ry="7.5" fill="#001d34" stroke="none" stroke-width="0"/><ellipse cx="767" cy="284" rx="6.5" ry="7.5" fill="#001d34" stroke="none" stroke-width="0"/><ellipse cx="744" cy="286" rx="6.5" ry="7.5" fill="#001d34" stroke="none" stroke-width="0"/><ellipse cx="720" cy="291" rx="6.5" ry="7.5" fill="#001d34" stroke="none" stroke-width="0"/><ellipse cx="736" cy="312" rx="6.5" ry="7.5" fill="#001d34" stroke="none" stroke-width="0"/><ellipse cx="759" cy="308" rx="6.5" ry="7.5" fill="#001d34" stroke="none" stroke-width="0"/><path d="M 278,780 C 320,728 373,710 423,739 C 568,744 792,723 994,697 C 1088,675 1150,698 1171,748 C 1191,792 1171,834 1120,868 C 1182,895 1203,937 1215,976 C 1138,930 1104,930 1023,933 C 808,931 626,963 466,986 C 365,1000 272,1007 232,964 C 213,943 223,912 239,874 Z" fill="#ffffff" stroke="#001d34" stroke-width="18" stroke-linejoin="round" stroke-linecap="round"/><g transform="translate(0 -10) rotate(-4 620 860)"><path d="M 305,780 L 414,780 L 350,894 C 334,923 346,936 367,936 C 389,936 403,924 414,903 L 483,780 L 579,780 L 499,920 C 471,970 421,985 361,985 C 291,985 251,961 272,922 Z" fill="#001d34" stroke="none" stroke-width="0" stroke-linejoin="round" stroke-linecap="round"/><path d="M 598,780 L 684,780 L 634,884 L 735,780 L 817,780 L 782,884 L 888,780 L 973,780 L 809,963 L 698,963 L 718,899 L 647,963 L 532,963 Z" fill="#001d34" stroke="none" stroke-width="0" stroke-linejoin="round" stroke-linecap="round"/><path d="M 993,780 L 1086,780 C 1145,780 1170,805 1155,845 C 1145,874 1123,889 1084,901 C 1134,918 1165,946 1189,977 C 1134,950 1093,944 1036,933 L 995,898 L 963,956 L 875,956 Z M 1023,829 L 1007,860 L 1058,860 C 1077,860 1087,854 1090,844 C 1094,834 1085,829 1074,829 Z" fill="#001d34" stroke="none" stroke-width="0" stroke-linejoin="round" stroke-linecap="round"/></g><path d="M 73,952 C 115,902 152,909 200,945 C 252,984 295,1005 345,1006 C 249,1027 199,969 152,954 C 117,942 92,952 73,976 Z" fill="#001d34" stroke="none" stroke-width="0" stroke-linejoin="round" stroke-linecap="round"/><path d="M 98,981 C 157,956 199,1022 288,1034 C 225,1051 182,1015 154,1000 C 130,986 113,982 98,981 Z" fill="#12b4ef" stroke="none" stroke-width="0" stroke-linejoin="round" stroke-linecap="round"/><path d="M 128,1006 C 283,1145 458,1083 675,1059 C 858,1036 1025,1035 1111,1061 C 1170,1079 1175,1117 1152,1142 C 1136,1113 1115,1101 1074,1090 C 960,1059 816,1074 661,1095 C 426,1128 254,1180 128,1006 Z" fill="#001d34" stroke="none" stroke-width="0" stroke-linejoin="round" stroke-linecap="round"/><path d="M 139,1018 C 281,1122 473,1071 670,1048 C 854,1025 1020,1024 1100,1044 C 972,1033 834,1048 676,1068 C 461,1096 283,1142 139,1018 Z" fill="#12b4ef" stroke="none" stroke-width="0" stroke-linejoin="round" stroke-linecap="round"/><path d="M 731,1104 C 863,1078 1002,1094 1068,1127 C 1096,1143 1080,1154 1056,1146 C 935,1104 830,1097 731,1104 Z" fill="#12b4ef" stroke="none" stroke-width="0" stroke-linejoin="round" stroke-linecap="round"/><path d="M 42,927 C 14,861 74,815 129,845 C 160,862 190,901 203,924 C 122,852 69,874 42,927 Z" fill="#12b4ef" stroke="none" stroke-width="0" stroke-linejoin="round" stroke-linecap="round"/><path d="M 168,838 C 139,812 98,798 113,778 C 134,750 166,799 168,838 Z" fill="#12b4ef" stroke="none" stroke-width="0" stroke-linejoin="round" stroke-linecap="round"/><path d="M 1165,873 C 1190,847 1216,840 1219,858 C 1223,881 1194,876 1165,873 Z" fill="#12b4ef" stroke="none" stroke-width="0" stroke-linejoin="round" stroke-linecap="round"/><path d="M 1141,1045 C 1155,1005 1200,997 1206,1034 C 1212,1060 1198,1079 1189,1090 C 1197,1041 1168,1031 1141,1045 Z" fill="#12b4ef" stroke="none" stroke-width="0" stroke-linejoin="round" stroke-linecap="round"/><g fill="#12b4ef" transform="translate(348 1074) rotate(-4) scale(0.13784679811551212 -0.102880658436214)"><path transform="translate(0 0)" d="M274 234 365 314 538 0H717L482 410L843 729H665L311 409L379 729H229L74 0H224Z"/><path transform="translate(744 0)" d="M538 741C434 741 350 709 275 640C197 570 139 467 116 359C109 326 106 293 106 261C106 86 217 -23 395 -23C524 -23 619 22 705 124C783 215 828 337 828 455C828 586 772 679 670 718C628 734 588 741 538 741ZM519 613C619 613 679 547 679 437C679 294 602 158 498 119C473 109 448 105 419 105C345 105 289 142 268 205C259 229 255 255 255 282C255 424 334 558 441 599C466 609 490 613 519 613Z"/><path transform="translate(1544 0)" d="M816 729H674L565 214L373 729H223L68 0H210L321 523L513 0H661Z"/><path transform="translate(2288 0)" d="M717 507C719 515 720 521 721 526C724 540 725 555 725 569C725 677 632 741 473 741C376 741 300 717 243 667C186 618 151 543 151 472C151 389 201 345 320 321L418 301C509 283 538 263 538 216C538 148 471 105 367 105C293 105 249 124 231 164C226 175 224 184 224 195C224 200 225 209 226 218H80C77 198 76 188 76 174C76 87 133 16 222 -8C260 -18 301 -23 345 -23C467 -23 560 12 618 79C660 126 687 199 687 265C687 342 632 394 530 414L421 436C347 451 316 464 304 485C302 491 300 499 300 509C300 559 339 599 398 609C414 612 430 613 447 613C517 613 556 596 573 559C577 549 579 540 579 530C579 525 578 516 577 507Z"/><path transform="translate(2977 0)" d="M514 604H726L753 729H169L142 604H364L235 0H385Z"/><path transform="translate(3610 0)" d="M532 147 550 0H703L606 729H433L26 0H179L260 147ZM518 272H329L483 555Z"/><path transform="translate(4354 0)" d="M816 729H674L565 214L373 729H223L68 0H210L321 523L513 0H661Z"/><path transform="translate(5098 0)" d="M733 729H185L158 604H531L57 125L30 0H578L605 125H232L706 604Z"/></g></svg>
